<svg xmlns="http://www.w3.org/2000/svg" viewBox="0 0 512 512" role="img" aria-label="QuizKi Icon">
  <defs>
    <linearGradient id="bg" x1="0%" y1="0%" x2="100%" y2="100%">
      <stop offset="0%" stop-color="#1F4556"/>
      <stop offset="100%" stop-color="#0D1C24"/>
    </linearGradient>
    <filter id="shadow" x="-20%" y="-20%" width="140%" height="140%">
      <feDropShadow dx="0" dy="12" stdDeviation="16" flood-color="#050C10" flood-opacity="0.5"/>
    </filter>
  </defs>

  <rect width="512" height="512" fill="url(#bg)"/>

  <!-- Ambient Glow -->
  <circle cx="256" cy="240" r="160" fill="#38BDF8" opacity="0.18"/>
  <circle cx="290" cy="220" r="110" fill="#FBBF24" opacity="0.14"/>

  <!-- Back Card -->
  <g transform="translate(236, 245) rotate(-9) translate(-220, -270)" filter="url(#shadow)">
    <rect width="220" height="270" rx="32" fill="#1A4458" stroke="#38BDF8" stroke-width="6" opacity="0.95"/>
  </g>

  <!-- Front Card -->
  <g transform="translate(266, 255) rotate(4) translate(-220, -270)" filter="url(#shadow)">
    <rect width="220" height="270" rx="32" fill="#FFFFFF"/>
    
    <!-- Gold Ribbon -->
    <rect x="155" y="-6" width="36" height="64" rx="8" fill="#F59E0B"/>
    <rect x="160" y="-6" width="26" height="56" rx="6" fill="#FBBF24"/>

    <!-- Q Logo -->
    <circle cx="110" cy="135" r="58" fill="none" stroke="#1E4052" stroke-width="22"/>
    <circle cx="110" cy="135" r="48" fill="none" stroke="#38BDF8" stroke-width="6" opacity="0.8"/>
    <path d="M 140 165 L 188 212" stroke="#1E4052" stroke-width="22" stroke-linecap="round"/>
    <path d="M 152 178 L 188 212" stroke="#F59E0B" stroke-width="10" stroke-linecap="round"/>

    <!-- Center dot -->
    <circle cx="110" cy="135" r="16" fill="#1E4052"/>
    <circle cx="110" cy="135" r="10" fill="#38BDF8"/>

    <!-- Bottom Lines -->
    <line x1="50" y1="215" x2="140" y2="222" stroke="#CBD5E1" stroke-width="4" stroke-linecap="round"/>
    <line x1="60" y1="228" x2="130" y2="234" stroke="#CBD5E1" stroke-width="4" stroke-linecap="round" opacity="0.7"/>
  </g>
</svg>
